# xmcd
#
# Track frame offsets:
#	150
#	13517
#	26869
#	40998
#	54523
#	67397
#	81134
#	94814
#	106366
#	118548
#
# Disc length: 1738 seconds
#
# Revision: 0
# Processed by: cddbd v1.4PL0 Copyright (c) Steve Scherf et al.
# Submitted via: EasyCDDAExtractor 4.5.0.2
#
DISCID=8506c80a
DTITLE=Steve Douglas - My Kind Of Music
DYEAR=1991
DGENRE=Country
TTITLE0=Every Night It Hurts A Little Less
TTITLE1=Slowly
TTITLE2=Roll Those Years Away
TTITLE3=If I Slip Anyfurther I'll Go Under
TTITLE4=Lady With The Red Dress On
TTITLE5='Till Hell Freezes Over
TTITLE6=The Shoes Of A Satisfied Man
TTITLE7=They Don't Make 'Em Like You Anymore
TTITLE8=Two Step Rule
TTITLE9=If I'm A Fool For Leaving
EXTD=
EXTT0=
EXTT1=
EXTT2=
EXTT3=
EXTT4=
EXTT5=
EXTT6=
EXTT7=
EXTT8=
EXTT9=
PLAYORDER=
